<svg width="20" height="20" viewBox="0 0 20 20" fill="none" xmlns="http://www.w3.org/2000/svg">
<path d="M4.43484 8.06902C6.44624 4.50991 7.45193 2.73035 8.83196 2.27226C9.59117 2.02025 10.409 2.02025 11.1682 2.27226C12.5482 2.73035 13.5539 4.50991 15.5653 8.06902C17.5767 11.6281 18.5824 13.4077 18.2807 14.8577C18.1148 15.6554 17.7058 16.379 17.1126 16.9247C16.0343 17.9166 14.0229 17.9166 10.0001 17.9166C5.97729 17.9166 3.96589 17.9166 2.88755 16.9247C2.29431 16.379 1.88541 15.6554 1.71943 14.8577C1.41774 13.4077 2.42344 11.6281 4.43484 8.06902Z" stroke="#92E89D" stroke-width="1.2"/>
<path d="M9.99349 13.3333H10.001" stroke="#92E89D" stroke-width="1.2" stroke-linecap="round" stroke-linejoin="round"/>
<path d="M10 10.8333L10 7.49992" stroke="#92E89D" stroke-width="1.2" stroke-linecap="round" stroke-linejoin="round"/>
</svg>
