<svg width="21" height="20" viewBox="0 0 21 20" fill="none" xmlns="http://www.w3.org/2000/svg">
<path d="M16.4836 10.534C16.4749 8.90076 17.2037 7.668 18.6789 6.76012C17.8535 5.56297 16.6066 4.90432 14.9601 4.77526C13.4015 4.65065 11.698 5.69648 11.0745 5.69648C10.416 5.69648 8.90563 4.81976 7.72019 4.81976C5.27029 4.85981 2.66672 6.80018 2.66672 10.7477C2.66672 11.9137 2.87746 13.1182 3.29895 14.3614C3.86094 15.9947 5.88935 20 8.00558 19.9332C9.11198 19.9065 9.89349 19.1366 11.3336 19.1366C12.7298 19.1366 13.4542 19.9332 14.6879 19.9332C16.8217 19.9021 18.6569 16.2617 19.1926 14.6239C16.33 13.2577 16.4836 10.6186 16.4836 10.534ZM13.9986 3.22652C15.1972 1.7846 15.0875 0.47174 15.0523 0C13.9942 0.0623053 12.7693 0.729862 12.0712 1.55318C11.3028 2.43436 10.8506 3.5247 10.9472 4.753C12.0931 4.84201 13.1381 4.24566 13.9986 3.22652Z" fill="white"/>
</svg>
