<svg width="36" height="36" viewBox="0 0 36 36" fill="none" xmlns="http://www.w3.org/2000/svg">
<rect width="36" height="36" rx="8" fill="#B922D2" fill-opacity="0.1"/>
<path d="M17.1666 18.833H21.3333M14.6666 18.833H14.6741M18.8333 22.1664H14.6666M21.3333 22.1664H21.3258" stroke="#DD5BF8" stroke-width="1.25" stroke-linecap="round" stroke-linejoin="round"/>
<path d="M23 9.66636V11.333M13 9.66636V11.333" stroke="#DD5BF8" stroke-width="1.25" stroke-linecap="round" stroke-linejoin="round"/>
<path d="M10.0834 18.2028C10.0834 14.5718 10.0834 12.7562 11.1268 11.6282C12.1702 10.5002 13.8496 10.5002 17.2084 10.5002H18.7917C22.1505 10.5002 23.8299 10.5002 24.8733 11.6282C25.9167 12.7562 25.9167 14.5718 25.9167 18.2028V18.6308C25.9167 22.2619 25.9167 24.0774 24.8733 25.2055C23.8299 26.3335 22.1505 26.3335 18.7917 26.3335H17.2084C13.8496 26.3335 12.1702 26.3335 11.1268 25.2055C10.0834 24.0774 10.0834 22.2619 10.0834 18.6308V18.2028Z" stroke="#DD5BF8" stroke-width="1.25" stroke-linecap="round" stroke-linejoin="round"/>
<path d="M10.5 14.6664H25.5" stroke="#DD5BF8" stroke-width="1.25" stroke-linecap="round" stroke-linejoin="round"/>
</svg>
