<svg width="20" height="20" viewBox="0 0 20 20" fill="none" xmlns="http://www.w3.org/2000/svg">
<path d="M10.8334 1.706C10.5593 1.67996 10.2813 1.66663 10.0001 1.66663C5.39823 1.66663 1.66675 5.23627 1.66675 9.63889C1.66675 11.7542 2.52786 13.6762 3.93249 15.1025C4.24175 15.4166 4.44823 15.8457 4.3649 16.2873C4.22737 17.0093 3.9157 17.6828 3.45934 18.2441C4.66004 18.4674 5.90853 18.2664 6.97924 17.697C7.35773 17.4957 7.54698 17.395 7.68052 17.3746C7.81407 17.3542 8.00535 17.3902 8.38793 17.462C8.91945 17.5618 9.45899 17.6118 10.0001 17.6112C14.025 17.6112 17.5545 14.8804 18.3334 11.25" stroke="#92E89D" stroke-width="1.2" stroke-linecap="round" stroke-linejoin="round"/>
<path d="M13.6594 6.72222L13.319 6.22814H13.319L13.6594 6.72222ZM17.1739 6.72222L17.5144 6.22814V6.22814L17.1739 6.72222ZM12.731 8.49034L12.2866 8.89346H12.2866L12.731 8.49034ZM18.1024 8.49034L17.658 8.08722L18.1024 8.49034ZM13.9998 7.2163C14.87 6.61674 15.9633 6.61674 16.8335 7.2163L17.5144 6.22814C16.2342 5.34612 14.5991 5.34612 13.319 6.22814L13.9998 7.2163ZM13.9878 9.76663H16.8456V8.56663H13.9878V9.76663ZM13.1754 8.08722C13.1243 8.03097 13.1076 7.99537 13.1027 7.98237C13.1014 7.97898 13.1007 7.97666 13.1004 7.97535C13.1002 7.97468 13.1001 7.9742 13.1 7.97391C13.1 7.97362 13.1 7.97347 13.1 7.97345C13.1 7.97343 13.1 7.97349 13.1 7.97363C13.1 7.97376 13.1 7.97391 13.1 7.97407C13.1 7.97444 13.1 7.97458 13.1 7.9744C13.1002 7.97276 13.1075 7.92223 13.1985 7.81917C13.4002 7.59066 13.707 7.41808 13.9998 7.2163L13.319 6.22814C13.1533 6.34227 12.6298 6.65016 12.2989 7.02494C12.1236 7.22352 11.939 7.50534 11.9053 7.86154C11.8693 8.24314 12.0161 8.59527 12.2866 8.89346L13.1754 8.08722ZM16.8335 7.2163C17.1264 7.41808 17.4331 7.59066 17.6349 7.81917C17.7259 7.92223 17.7332 7.97276 17.7333 7.9744C17.7333 7.97458 17.7333 7.97444 17.7333 7.97407C17.7333 7.97391 17.7333 7.97376 17.7334 7.97363C17.7334 7.97349 17.7334 7.97343 17.7334 7.97345C17.7334 7.97347 17.7333 7.97362 17.7333 7.97391C17.7332 7.9742 17.7331 7.97468 17.733 7.97535C17.7326 7.97666 17.732 7.97898 17.7307 7.98237C17.7257 7.99537 17.709 8.03097 17.658 8.08722L18.5468 8.89346C18.8173 8.59527 18.9641 8.24314 18.928 7.86154C18.8944 7.50534 18.7098 7.22352 18.5344 7.02494C18.2035 6.65016 17.68 6.34227 17.5144 6.22814L16.8335 7.2163ZM17.658 8.08722C17.3431 8.43433 17.0944 8.56663 16.8456 8.56663V9.76663C17.5983 9.76663 18.1463 9.33493 18.5468 8.89346L17.658 8.08722ZM12.2866 8.89346C12.687 9.33493 13.235 9.76663 13.9878 9.76663V8.56663C13.7389 8.56663 13.4902 8.43433 13.1754 8.08722L12.2866 8.89346ZM16.275 3.16663C16.275 3.67973 15.8749 4.06663 15.4167 4.06663V5.26663C16.5693 5.26663 17.475 4.31038 17.475 3.16663H16.275ZM15.4167 4.06663C14.9584 4.06663 14.5583 3.67973 14.5583 3.16663H13.3583C13.3583 4.31038 14.2641 5.26663 15.4167 5.26663V4.06663ZM14.5583 3.16663C14.5583 2.65352 14.9584 2.26663 15.4167 2.26663V1.06663C14.2641 1.06663 13.3583 2.02287 13.3583 3.16663H14.5583ZM15.4167 2.26663C15.8749 2.26663 16.275 2.65352 16.275 3.16663H17.475C17.475 2.02287 16.5693 1.06663 15.4167 1.06663V2.26663Z" fill="#92E89D"/>
<path d="M9.99634 10H10.0038M6.66675 10H6.67422" stroke="#92E89D" stroke-width="1.7" stroke-linecap="round" stroke-linejoin="round"/>
</svg>
