<svg width="20" height="20" viewBox="0 0 20 20" fill="none" xmlns="http://www.w3.org/2000/svg">
<path d="M15 1.66666V3.33332M5 1.66666V3.33332" stroke="#BDB9BE" stroke-width="1.5" stroke-linecap="round" stroke-linejoin="round"/>
<path d="M9.99622 10.8333H10.0037M9.99622 14.1666H10.0037M13.3258 10.8333H13.3333M6.66663 10.8333H6.6741M6.66663 14.1666H6.6741" stroke="#BDB9BE" stroke-width="2" stroke-linecap="round" stroke-linejoin="round"/>
<path d="M2.91663 6.66666H17.0833" stroke="#BDB9BE" stroke-width="1.5" stroke-linecap="round" stroke-linejoin="round"/>
<path d="M2.08331 10.2027C2.08331 6.57161 2.08331 4.75607 3.12675 3.62803C4.17018 2.5 5.84956 2.5 9.20831 2.5H10.7916C14.1504 2.5 15.8298 2.5 16.8732 3.62803C17.9166 4.75607 17.9166 6.57161 17.9166 10.2027V10.6306C17.9166 14.2617 17.9166 16.0773 16.8732 17.2053C15.8298 18.3333 14.1504 18.3333 10.7916 18.3333H9.20831C5.84956 18.3333 4.17018 18.3333 3.12675 17.2053C2.08331 16.0773 2.08331 14.2617 2.08331 10.6306V10.2027Z" stroke="#BDB9BE" stroke-width="1.5" stroke-linecap="round" stroke-linejoin="round"/>
<path d="M2.5 6.66666H17.5" stroke="#BDB9BE" stroke-width="1.5" stroke-linecap="round" stroke-linejoin="round"/>
</svg>
