<svg width="16" height="17" viewBox="0 0 16 17" fill="none" xmlns="http://www.w3.org/2000/svg">
<path fill-rule="evenodd" clip-rule="evenodd" d="M3.14648 4.3515C3.06582 4.95344 2.6142 5.71431 2.12427 6.07264C1.66949 6.40625 1.36575 6.90676 1.2798 7.4642C1.19385 8.02164 1.33272 8.5904 1.6659 9.04551C2.02058 9.52758 2.21727 10.2994 2.13794 10.8926C2.06831 11.4177 2.19287 11.9696 2.53071 12.4296C2.84218 12.8555 3.30129 13.15 3.8183 13.2555C4.43884 13.3835 5.20188 13.8735 5.57638 14.3846C5.91 14.8391 6.41037 15.1427 6.96761 15.2286C7.52486 15.3145 8.09342 15.1757 8.54846 14.8428C9.0595 14.4683 9.93469 14.2309 10.565 14.2957C11.0897 14.3509 11.6162 14.2084 12.0415 13.896C12.4847 13.5717 12.7847 13.0881 12.8785 12.547C12.9813 11.959 13.3966 11.2865 13.8792 10.9335C14.3355 10.6002 14.6407 10.0994 14.7277 9.5411C14.8147 8.98283 14.6763 8.41287 14.3431 7.9566C13.9845 7.46825 13.7824 6.60578 13.8874 6.00841C13.937 5.72636 13.9289 5.4372 13.8637 5.15836C13.7985 4.87952 13.6774 4.61679 13.5078 4.38602C13.3323 4.14577 13.1081 3.94517 12.8499 3.79728C12.5917 3.64938 12.3052 3.5575 12.0091 3.52761C11.4402 3.46904 10.77 3.08563 10.4324 2.62399C10.0988 2.16921 9.59829 1.86547 9.04085 1.77952C8.48341 1.69357 7.91465 1.83245 7.45955 2.16562C6.9995 2.50346 6.24402 2.66786 5.68388 2.55235C5.39268 2.49181 5.092 2.49322 4.80137 2.55649C4.51075 2.61976 4.2367 2.74347 3.99702 2.91959C3.76592 3.08849 3.57143 3.30243 3.42525 3.54853C3.27907 3.79462 3.18425 4.06777 3.14648 4.3515ZM10.8164 6.2027C10.8994 6.26709 10.969 6.34722 11.021 6.4385C11.0731 6.52978 11.1067 6.63042 11.1198 6.73468C11.133 6.83894 11.1255 6.94478 11.0978 7.04613C11.07 7.14749 11.0226 7.24239 10.9581 7.32541L8.16225 10.927C8.08902 11.0256 7.9941 11.1059 7.88482 11.1619C7.72603 11.2432 7.5446 11.2691 7.36939 11.2355C7.19417 11.2019 7.03522 11.1107 6.9178 10.9764L5.00543 8.89504C4.93434 8.81764 4.8792 8.727 4.84314 8.62829C4.80708 8.52959 4.79082 8.42474 4.79529 8.31975C4.79975 8.21475 4.82485 8.11167 4.86915 8.01637C4.91345 7.92108 4.97609 7.83545 5.05349 7.76436C5.13089 7.69327 5.22153 7.63813 5.32024 7.60207C5.41894 7.56602 5.52379 7.54976 5.62878 7.55422C5.73378 7.55868 5.83686 7.58378 5.93216 7.62808C6.02745 7.67238 6.11308 7.73502 6.18417 7.81242L7.46847 9.21086L9.69377 6.34368C9.75822 6.26071 9.83839 6.19124 9.92968 6.13925C10.021 6.08727 10.1216 6.05377 10.2259 6.04068C10.3301 6.02759 10.4359 6.03516 10.5372 6.06295C10.6385 6.09075 10.7334 6.13824 10.8164 6.2027Z" fill="#DD5BF8"/>
</svg>
