<svg width="21" height="20" viewBox="0 0 21 20" fill="none" xmlns="http://www.w3.org/2000/svg">
<path d="M13.1666 10.8333C16.1581 10.8333 18.5833 10.0871 18.5833 9.16667C18.5833 8.24619 16.1581 7.5 13.1666 7.5C10.175 7.5 7.74992 8.24619 7.74992 9.16667C7.74992 10.0871 10.175 10.8333 13.1666 10.8333Z" stroke="#89FF99" stroke-width="1.25"/>
<path d="M18.5833 12.9167C18.5833 13.8372 16.1582 14.5834 13.1666 14.5834C10.175 14.5834 7.74992 13.8372 7.74992 12.9167" stroke="#89FF99" stroke-width="1.25"/>
<path d="M18.5833 9.16675V16.5001C18.5833 17.5126 16.1582 18.3334 13.1666 18.3334C10.175 18.3334 7.74992 17.5126 7.74992 16.5001V9.16675" stroke="#89FF99" stroke-width="1.25"/>
<path d="M7.33325 5.00008C10.3248 5.00008 12.7499 4.25389 12.7499 3.33341C12.7499 2.41294 10.3248 1.66675 7.33325 1.66675C4.3417 1.66675 1.91658 2.41294 1.91658 3.33341C1.91658 4.25389 4.3417 5.00008 7.33325 5.00008Z" stroke="#89FF99" stroke-width="1.25"/>
<path d="M5.24991 9.16667C3.67341 8.97483 2.22484 8.47875 1.91658 7.5M5.24991 13.3333C3.67341 13.1415 2.22484 12.6454 1.91658 11.6667" stroke="#89FF99" stroke-width="1.25" stroke-linecap="round"/>
<path d="M5.24991 17.4999C3.67341 17.3081 2.22484 16.812 1.91658 15.8333V3.33325" stroke="#89FF99" stroke-width="1.25" stroke-linecap="round"/>
<path d="M12.7499 4.99992V3.33325" stroke="#89FF99" stroke-width="1.25" stroke-linecap="round"/>
</svg>
