<svg width="21" height="20" viewBox="0 0 21 20" fill="none" xmlns="http://www.w3.org/2000/svg">
<path d="M7.33333 11.25H14M7.33333 7.08333H10.6667" stroke="white" stroke-width="1.5" stroke-linecap="round" stroke-linejoin="round"/>
<path d="M5.74899 15.8333C4.66556 15.7268 3.85394 15.4014 3.30962 14.857C2.33331 13.8807 2.33331 12.3094 2.33331 9.16668V8.75001C2.33331 5.60731 2.33331 4.03596 3.30962 3.05965C4.28593 2.08334 5.85728 2.08334 8.99998 2.08334H12.3333C15.476 2.08334 17.0474 2.08334 18.0237 3.05965C19 4.03596 19 5.60731 19 8.75001V9.16668C19 12.3094 19 13.8807 18.0237 14.857C17.0474 15.8333 15.476 15.8333 12.3333 15.8333C11.8663 15.8438 11.4943 15.8793 11.1288 15.9625C10.1302 16.1924 9.20542 16.7035 8.29154 17.1491C6.98939 17.784 6.33831 18.1015 5.92973 17.8043C5.14806 17.2221 5.9121 15.4182 6.08331 14.5833" stroke="white" stroke-width="1.5" stroke-linecap="round"/>
</svg>
