<svg width="24" height="24" viewBox="0 0 24 24" fill="none" xmlns="http://www.w3.org/2000/svg">
<g filter="url(#filter0_d_850_4419)">
<path d="M11.4002 15.1668H8.60016C5.9935 15.1668 4.8335 14.0068 4.8335 11.4002V8.60016C4.8335 5.9935 5.9935 4.8335 8.60016 4.8335H11.4002C14.0068 4.8335 15.1668 5.9935 15.1668 8.60016V11.4002C15.1668 14.0068 14.0068 15.1668 11.4002 15.1668ZM8.60016 5.8335C6.5335 5.8335 5.8335 6.5335 5.8335 8.60016V11.4002C5.8335 13.4668 6.5335 14.1668 8.60016 14.1668H11.4002C13.4668 14.1668 14.1668 13.4668 14.1668 11.4002V8.60016C14.1668 6.5335 13.4668 5.8335 11.4002 5.8335H8.60016Z" fill="#89FF99"/>
<path d="M15.4002 11.1668H14.6668C14.3935 11.1668 14.1668 10.9402 14.1668 10.6668V8.60016C14.1668 6.5335 13.4668 5.8335 11.4002 5.8335H9.3335C9.06016 5.8335 8.8335 5.60683 8.8335 5.3335V4.60016C8.8335 1.9935 9.9935 0.833496 12.6002 0.833496H15.4002C18.0068 0.833496 19.1668 1.9935 19.1668 4.60016V7.40016C19.1668 10.0068 18.0068 11.1668 15.4002 11.1668ZM15.1668 10.1668H15.4002C17.4668 10.1668 18.1668 9.46683 18.1668 7.40016V4.60016C18.1668 2.5335 17.4668 1.8335 15.4002 1.8335H12.6002C10.5335 1.8335 9.8335 2.5335 9.8335 4.60016V4.8335H11.4002C14.0068 4.8335 15.1668 5.9935 15.1668 8.60016V10.1668Z" fill="#89FF99"/>
</g>
<defs>
<filter id="filter0_d_850_4419" x="0" y="0" width="24" height="24" filterUnits="userSpaceOnUse" color-interpolation-filters="sRGB">
<feFlood flood-opacity="0" result="BackgroundImageFix"/>
<feColorMatrix in="SourceAlpha" type="matrix" values="0 0 0 0 0 0 0 0 0 0 0 0 0 0 0 0 0 0 127 0" result="hardAlpha"/>
<feOffset dy="4"/>
<feGaussianBlur stdDeviation="2"/>
<feComposite in2="hardAlpha" operator="out"/>
<feColorMatrix type="matrix" values="0 0 0 0 0 0 0 0 0 0 0 0 0 0 0 0 0 0 0.25 0"/>
<feBlend mode="normal" in2="BackgroundImageFix" result="effect1_dropShadow_850_4419"/>
<feBlend mode="normal" in="SourceGraphic" in2="effect1_dropShadow_850_4419" result="shape"/>
</filter>
</defs>
</svg>
