<svg width="25" height="24" viewBox="0 0 25 24" fill="none" xmlns="http://www.w3.org/2000/svg">
<path d="M2.67488 15.8092C2.89777 12.3161 3.554 9.7599 4.11008 8.27511C4.39082 7.5255 4.99481 6.96728 5.76808 6.78021C10.0681 5.73993 15.2652 5.73993 19.5652 6.78021C20.3385 6.96728 20.9425 7.5255 21.2232 8.27511C21.7793 9.7599 22.4355 12.3161 22.6584 15.8092C22.7917 17.8989 21.2814 19.0503 19.6095 19.8925C18.5446 20.4289 17.7257 18.8457 17.1821 17.6203C16.8851 16.9508 16.2333 16.5356 15.4947 16.5356H9.83859C9.09994 16.5356 8.44821 16.9508 8.15119 17.6203C7.60752 18.8457 6.78863 20.4289 5.72374 19.8925C4.06878 19.0588 2.54047 17.9157 2.67488 15.8092Z" stroke="#504C51" stroke-width="1.8" stroke-linecap="round" stroke-linejoin="round"/>
<path d="M5.66663 4.5L7.62948 4M19.6666 4.5L17.6666 4" stroke="#504C51" stroke-width="1.5" stroke-linecap="round" stroke-linejoin="round"/>
<path d="M9.66663 13L8.16663 11.5M8.16663 11.5L6.66663 10M8.16663 11.5L6.66663 13M8.16663 11.5L9.66663 10" stroke="#504C51" stroke-width="1.5" stroke-linecap="round"/>
<path d="M16.6548 10H16.6638" stroke="#504C51" stroke-width="2" stroke-linecap="round" stroke-linejoin="round"/>
<path d="M18.6548 13H18.6638" stroke="#504C51" stroke-width="2" stroke-linecap="round" stroke-linejoin="round"/>
</svg>
