<svg width="19" height="18" viewBox="0 0 19 18" fill="none" xmlns="http://www.w3.org/2000/svg">
<path d="M3.13864 7.72935C2.8476 6.92382 2.70207 6.52107 2.76413 6.26299C2.832 5.9807 3.03275 5.76063 3.28935 5.68722C3.52395 5.6201 3.8889 5.7823 4.6188 6.1067C5.2644 6.39365 5.5872 6.53711 5.89049 6.52913C6.22443 6.52034 6.54566 6.38643 6.8012 6.14948C7.03329 5.93428 7.18896 5.59135 7.5003 4.90548L8.18645 3.39394C8.7596 2.13131 9.04617 1.5 9.5 1.5C9.95382 1.5 10.2404 2.13131 10.8135 3.39394L11.4997 4.90548C11.811 5.59135 11.9667 5.93428 12.1988 6.14948C12.4543 6.38643 12.7755 6.52034 13.1095 6.52913C13.4128 6.53711 13.7356 6.39365 14.3812 6.1067C15.1111 5.7823 15.4761 5.6201 15.7107 5.68722C15.9672 5.76063 16.168 5.9807 16.2359 6.26299C16.2979 6.52107 16.1524 6.92382 15.8613 7.72928L14.6103 11.1917C14.0751 12.6728 13.8076 13.4133 13.2476 13.8316C12.6876 14.25 11.964 14.25 10.5168 14.25H8.48315C7.03594 14.25 6.31233 14.25 5.75236 13.8316C5.1924 13.4133 4.92483 12.6728 4.38966 11.1917L3.13864 7.72935Z" stroke="#40D654" stroke-width="1.125"/>
<path d="M9.5 10.5H9.50675" stroke="#40D654" stroke-width="1.5" stroke-linecap="round" stroke-linejoin="round"/>
<path d="M5.75 16.5H13.25" stroke="#40D654" stroke-width="1.125" stroke-linecap="round"/>
</svg>
