<svg width="26" height="26" viewBox="0 0 26 26" fill="none" xmlns="http://www.w3.org/2000/svg">
<path fill-rule="evenodd" clip-rule="evenodd" d="M8.1073 12.9409C8.1073 15.7149 10.3561 17.9636 13.13 17.9636C15.904 17.9636 18.1528 15.7149 18.1528 12.9409C18.1495 10.1683 15.9027 7.92141 13.13 7.91815C10.3561 7.91815 8.1073 10.1669 8.1073 12.9409ZM13.13 16.1909C11.3351 16.1909 9.88003 14.7358 9.88003 12.9409C9.88003 11.146 11.3351 9.69088 13.13 9.69088C14.925 9.69088 16.38 11.146 16.38 12.9409C16.38 14.7358 14.925 16.1909 13.13 16.1909Z" fill="white"/>
<path fill-rule="evenodd" clip-rule="evenodd" d="M24.6527 12.0545H22.8327C22.3979 7.37729 18.6936 3.67295 14.0164 3.23816V1.41816C14.0164 0.928638 13.6195 0.531799 13.13 0.531799C12.6405 0.531799 12.2436 0.928638 12.2436 1.41816V3.23816C7.56641 3.67295 3.86207 7.37729 3.42728 12.0545H1.01637C0.526843 12.0545 0.130005 12.4514 0.130005 12.9409C0.130005 13.4304 0.526843 13.8273 1.01637 13.8273H3.42728C3.85984 18.5088 7.568 22.217 12.2495 22.6495C12.2495 22.6495 12.2495 22.6495 12.2495 22.6968V25.0604C12.2495 25.55 12.6464 25.9468 13.1359 25.9468C13.6254 25.9468 14.0223 25.55 14.0223 25.0604V22.6968C14.0223 22.6968 14.0223 22.6968 14.0223 22.6495C18.6992 22.2116 22.4011 18.5048 22.8327 13.8273H24.6527C25.1423 13.8273 25.5391 13.4304 25.5391 12.9409C25.5391 12.4514 25.1423 12.0545 24.6527 12.0545ZM13.13 20.9182C8.72428 20.9182 5.15273 17.3466 5.15273 12.9409C5.15273 8.53516 8.72428 4.96362 13.13 4.96362C17.5357 4.96362 21.1073 8.53516 21.1073 12.9409C21.1073 17.3466 17.5357 20.9182 13.13 20.9182Z" fill="white"/>
</svg>
