<svg width="20" height="21" viewBox="0 0 20 21" fill="none" xmlns="http://www.w3.org/2000/svg">
<path d="M8.47177 3.81586C8.96272 3.70446 9.47416 3.64551 10.0001 3.64551C13.7971 3.64551 16.8751 6.72355 16.8751 10.5205C16.8751 12.4635 16.0695 14.2185 14.7724 15.4695V13.8538C14.7724 13.5087 14.4926 13.2288 14.1474 13.2288C13.8022 13.2288 13.5224 13.5087 13.5224 13.8538V16.7705C13.5224 17.1157 13.8022 17.3955 14.1474 17.3955H17.0835C17.4286 17.3955 17.7085 17.1157 17.7085 16.7705C17.7085 16.4253 17.4286 16.1455 17.0835 16.1455H15.8631C17.2635 14.6861 18.1251 12.704 18.1251 10.5205C18.1251 6.03319 14.4875 2.39551 10.0001 2.39551C9.38046 2.39551 8.77626 2.46499 8.19517 2.59685C7.85855 2.67323 7.64758 3.00804 7.72396 3.34466C7.80035 3.68128 8.13515 3.89224 8.47177 3.81586Z" fill="#979399"/>
<path d="M2.91667 3.65853C2.57149 3.65853 2.29167 3.93835 2.29167 4.28353C2.29167 4.62871 2.57149 4.90853 2.91667 4.90853H4.12465C2.73153 6.3667 1.875 8.34354 1.875 10.5206C1.875 15.0079 5.51269 18.6456 10 18.6456C10.6197 18.6456 11.2239 18.5761 11.805 18.4442C12.1416 18.3678 12.3526 18.033 12.2762 17.6964C12.1998 17.3598 11.865 17.1488 11.5284 17.2252C11.0374 17.3366 10.526 17.3956 10 17.3956C6.20304 17.3956 3.125 14.3175 3.125 10.5206C3.125 8.58728 3.92264 6.84013 5.20833 5.59042V7.18724C5.20833 7.53242 5.48816 7.81224 5.83333 7.81224C6.17851 7.81224 6.45833 7.53242 6.45833 7.18724V4.28353C6.45833 3.93835 6.17851 3.65853 5.83333 3.65853H2.91667Z" fill="#979399"/>
</svg>
