<svg width="14" height="14" viewBox="0 0 14 14" fill="none" xmlns="http://www.w3.org/2000/svg">
<path d="M8.15192 1.29604L9.32512 3.66184C9.48511 3.99117 9.91173 4.30705 10.2717 4.36754L12.3981 4.72376C13.758 4.95227 14.0779 5.94698 13.098 6.92825L11.4449 8.59506C11.1649 8.87734 11.0116 9.42175 11.0983 9.81156L11.5715 11.8749C11.9448 13.5081 11.0849 14.1399 9.65175 13.2863L7.65864 12.0967C7.29868 11.8816 6.70541 11.8816 6.33879 12.0967L4.34567 13.2863C2.91917 14.1399 2.05259 13.5014 2.42589 11.8749L2.89917 9.81156C2.98582 9.42175 2.83251 8.87734 2.55254 8.59506L0.899389 6.92825C-0.0738373 5.94698 0.239462 4.95227 1.59931 4.72376L3.72574 4.36754C4.07904 4.30705 4.50566 3.99117 4.66564 3.66184L5.83884 1.29604C6.47877 0.0123234 7.51866 0.0123234 8.15192 1.29604Z" fill="#40D654"/>
</svg>
