<svg width="17" height="16" viewBox="0 0 17 16" fill="none" xmlns="http://www.w3.org/2000/svg">
<path d="M9 14.6666H5.06058C4.03033 14.6666 3.21087 14.1652 2.47511 13.4643C0.968911 12.0293 3.44187 10.8826 4.38505 10.321C5.78558 9.48704 7.42453 9.18117 9 9.40337C9.57167 9.48397 10.1284 9.63418 10.6667 9.85384" stroke="#073203" stroke-width="1.5" stroke-linecap="round" stroke-linejoin="round"/>
<path d="M11.6666 4.33325C11.6666 5.99011 10.3235 7.33325 8.66663 7.33325C7.00977 7.33325 5.66663 5.99011 5.66663 4.33325C5.66663 2.6764 7.00977 1.33325 8.66663 1.33325C10.3235 1.33325 11.6666 2.6764 11.6666 4.33325Z" fill="#073203"/>
<path d="M13 14.6667V10M10.6666 12.3333H15.3333" stroke="#073203" stroke-width="1.5" stroke-linecap="round"/>
</svg>
