<svg width="25" height="24" viewBox="0 0 25 24" fill="none" xmlns="http://www.w3.org/2000/svg">
<path d="M12.8334 22H6.92424C5.37886 22 4.14969 21.248 3.04604 20.1966C0.78674 18.0441 4.49617 16.324 5.91094 15.4816C8.01174 14.2307 10.4702 13.7719 12.8334 14.1052C13.6909 14.2261 14.526 14.4514 15.3334 14.7809" stroke="#504C51" stroke-width="1.8" stroke-linecap="round" stroke-linejoin="round"/>
<path d="M16.8334 6.5C16.8334 8.98528 14.8187 11 12.3334 11C9.84809 11 7.83337 8.98528 7.83337 6.5C7.83337 4.01472 9.84809 2 12.3334 2C14.8187 2 16.8334 4.01472 16.8334 6.5Z" stroke="#504C51" stroke-width="1.8"/>
<path d="M18.8334 22V15M15.3334 18.5H22.3334" stroke="#504C51" stroke-width="1.8" stroke-linecap="round"/>
</svg>
