<svg width="20" height="20" viewBox="0 0 20 20" fill="none" xmlns="http://www.w3.org/2000/svg">
<path d="M1.6735 13.1743C1.85925 10.2634 2.4061 8.13325 2.8695 6.89592C3.10345 6.27125 3.60677 5.80607 4.25117 5.65018C7.83452 4.78327 12.1654 4.78327 15.7488 5.65018C16.3932 5.80607 16.8965 6.27125 17.1305 6.89592C17.5939 8.13325 18.1407 10.2634 18.3264 13.1743C18.4376 14.9157 17.1789 15.8753 15.7857 16.5771C14.8983 17.0241 14.2159 15.7048 13.7629 14.6836C13.5153 14.1257 12.9722 13.7797 12.3567 13.7797H7.64326C7.02771 13.7797 6.48461 14.1257 6.23709 14.6836C5.78404 15.7048 5.10163 17.0241 4.21421 16.5771C2.83508 15.8824 1.56149 14.9297 1.6735 13.1743Z" stroke="currentColor" stroke-width="1.5" stroke-linecap="round" stroke-linejoin="round"/>
<path d="M4.16663 3.75001L5.80233 3.33334M15.8333 3.75001L14.1666 3.33334" stroke="currentColor" stroke-width="1.5" stroke-linecap="round" stroke-linejoin="round"/>
<path d="M7.5 10.8333L6.25 9.58334M6.25 9.58334L5 8.33334M6.25 9.58334L5 10.8333M6.25 9.58334L7.5 8.33334" stroke="currentColor" stroke-width="1.5" stroke-linecap="round"/>
<path d="M13.3233 8.33334H13.3308" stroke="currentColor" stroke-width="2" stroke-linecap="round" stroke-linejoin="round"/>
<path d="M14.9901 10.8333H14.9976" stroke="currentColor" stroke-width="2" stroke-linecap="round" stroke-linejoin="round"/>
</svg>
