<svg width="16" height="16" viewBox="0 0 16 16" fill="none" xmlns="http://www.w3.org/2000/svg">
<path d="M1.33882 10.5395C1.48741 8.21073 1.9249 6.5066 2.29562 5.51674C2.48278 5.017 2.88544 4.64485 3.40095 4.52014C6.26763 3.82662 9.73238 3.82662 12.599 4.52014C13.1146 4.64485 13.5173 5.017 13.7044 5.51674C14.0751 6.5066 14.5126 8.21073 14.6612 10.5395C14.75 11.9326 13.7432 12.7002 12.6286 13.2617C11.9186 13.6193 11.3727 12.5638 11.0103 11.7469C10.8123 11.3005 10.3778 11.0237 9.88538 11.0237H6.11462C5.62219 11.0237 5.1877 11.3005 4.98969 11.7469C4.62724 12.5638 4.08132 13.6193 3.37139 13.2617C2.26808 12.7059 1.24921 11.9438 1.33882 10.5395Z" fill="#073203" stroke="#073203" stroke-linecap="round" stroke-linejoin="round"/>
<path d="M3.33331 2.99984L4.64188 2.6665M12.6666 2.99984L11.3333 2.6665" stroke="#073203" stroke-linecap="round" stroke-linejoin="round"/>
<path d="M6 8.6665L5 7.6665M5 7.6665L4 6.6665M5 7.6665L4 8.6665M5 7.6665L6 6.6665" stroke="#40D654" stroke-linecap="round"/>
<path d="M10.6588 6.6665H10.6648" stroke="#40D654" stroke-width="1.33333" stroke-linecap="round" stroke-linejoin="round"/>
<path d="M11.9921 8.6665H11.9981" stroke="#40D654" stroke-width="1.33333" stroke-linecap="round" stroke-linejoin="round"/>
</svg>
