<svg width="20" height="20" viewBox="0 0 20 20" fill="none" xmlns="http://www.w3.org/2000/svg">
<path d="M3.33374 9.16748V12.5008C3.33374 15.2506 3.33374 16.6256 4.18802 17.4799C5.04228 18.3341 6.41722 18.3341 9.16707 18.3341H10.8337C13.5836 18.3341 14.9585 18.3341 15.8128 17.4799C16.6671 16.6256 16.6671 15.2506 16.6671 12.5008V9.16748" stroke="#2DA719" stroke-width="1.25" stroke-linecap="round" stroke-linejoin="round"/>
<path d="M2.50024 7.49967C2.50024 6.8766 2.50024 6.56506 2.66771 6.33301C2.77742 6.18099 2.93522 6.05475 3.12524 5.96698C3.41531 5.83301 3.80473 5.83301 4.58358 5.83301H15.4169C16.1957 5.83301 16.5852 5.83301 16.8752 5.96698C17.0652 6.05475 17.2231 6.18099 17.3327 6.33301C17.5002 6.56506 17.5002 6.8766 17.5002 7.49967C17.5002 8.12275 17.5002 8.43426 17.3327 8.66634C17.2231 8.81834 17.0652 8.94459 16.8752 9.03234C16.5852 9.16634 16.1957 9.16634 15.4169 9.16634H4.58358C3.80473 9.16634 3.41531 9.16634 3.12524 9.03234C2.93522 8.94459 2.77742 8.81834 2.66771 8.66634C2.50024 8.43426 2.50024 8.12275 2.50024 7.49967Z" stroke="#2DA719" stroke-width="1.25" stroke-linejoin="round"/>
<path d="M5.00024 3.15557C5.00024 2.33372 5.66649 1.66748 6.48834 1.66748H6.78596C8.56116 1.66748 10.0002 3.10656 10.0002 4.88176V5.83415H7.67882C6.19948 5.83415 5.00024 4.63491 5.00024 3.15557Z" stroke="#2DA719" stroke-width="1.25" stroke-linejoin="round"/>
<path d="M15.0002 3.15557C15.0002 2.33372 14.334 1.66748 13.5122 1.66748H13.2145C11.4393 1.66748 10.0002 3.10656 10.0002 4.88176V5.83415H12.3217C13.801 5.83415 15.0002 4.63491 15.0002 3.15557Z" stroke="#2DA719" stroke-width="1.25" stroke-linejoin="round"/>
<path d="M10.0002 9.16748V18.3341" stroke="#2DA719" stroke-width="1.25" stroke-linecap="round" stroke-linejoin="round"/>
</svg>
