<svg width="20" height="20" viewBox="0 0 20 20" fill="none" xmlns="http://www.w3.org/2000/svg">
<g clip-path="url(#clip0_197_1938)">
<path d="M19.1739 9.71049C19.1739 8.93162 19.1121 8.36325 18.9782 7.77383H10.2724V11.2893H15.3825C15.2795 12.1629 14.7232 13.4786 13.4868 14.3627L13.4695 14.4804L16.2221 16.6589L16.4128 16.6783C18.1642 15.0258 19.1739 12.5944 19.1739 9.71049Z" fill="#4285F4"/>
<path d="M10.2724 18.9729C12.776 18.9729 14.8777 18.1308 16.4128 16.6783L13.4869 14.3627C12.7039 14.9205 11.653 15.31 10.2724 15.31C7.82043 15.31 5.7393 13.6575 4.99744 11.3735L4.8887 11.383L2.02651 13.6459L1.98907 13.7522C3.51385 16.8467 6.64587 18.9729 10.2724 18.9729Z" fill="#34A853"/>
<path d="M4.99743 11.3735C4.80168 10.7841 4.68839 10.1525 4.68839 9.50001C4.68839 8.84739 4.80168 8.21589 4.98713 7.62648L4.98194 7.50095L2.08388 5.20163L1.98906 5.24771C1.36063 6.53182 1.00003 7.97383 1.00003 9.50001C1.00003 11.0262 1.36063 12.4681 1.98906 13.7522L4.99743 11.3735Z" fill="#FBBC05"/>
<path d="M10.2724 3.68994C12.0136 3.68994 13.1881 4.45829 13.8578 5.10039L16.4746 2.49007C14.8675 0.963894 12.776 0.0271301 10.2724 0.0271301C6.64587 0.0271301 3.51385 2.15324 1.98907 5.24769L4.98714 7.62646C5.7393 5.34245 7.82043 3.68994 10.2724 3.68994Z" fill="#EB4335"/>
</g>
<defs>
<clipPath id="clip0_197_1938">
<rect x="1.00003" width="18.1739" height="19" rx="9.08696" fill="white"/>
</clipPath>
</defs>
</svg>
