<svg width="20" height="20" viewBox="0 0 20 20" fill="none" xmlns="http://www.w3.org/2000/svg">
<rect x="0.4" y="0.4" width="19.2" height="19.2" rx="9.6" stroke="currentColor" stroke-width="0.8"/>
<path d="M15.1181 13.5C15.5552 13.5 15.9029 13.2249 16.2151 12.8403C16.8541 12.053 15.8049 11.4238 15.4047 11.1157C14.998 10.8024 14.5438 10.625 14.0833 10.5833M13.5 9.41667C14.3054 9.41667 14.9583 8.76375 14.9583 7.95833C14.9583 7.15292 14.3054 6.5 13.5 6.5" stroke="currentColor" stroke-width="0.8" stroke-linecap="round"/>
<path d="M4.88177 13.5C4.44468 13.5 4.09702 13.2249 3.78487 12.8403C3.14585 12.053 4.19502 11.4238 4.59517 11.1157C5.00195 10.8024 5.45614 10.625 5.91663 10.5833M6.2083 9.41667C5.40288 9.41667 4.74996 8.76375 4.74996 7.95833C4.74996 7.15292 5.40288 6.5 6.2083 6.5" stroke="currentColor" stroke-width="0.8" stroke-linecap="round"/>
<path d="M7.7155 11.8147C7.11946 12.1833 5.55669 12.9358 6.50852 13.8775C6.97349 14.3375 7.49134 14.6665 8.1424 14.6665H11.8575C12.5086 14.6665 13.0264 14.3375 13.4914 13.8775C14.4432 12.9358 12.8804 12.1833 12.2844 11.8147C10.8867 10.9504 9.1132 10.9504 7.7155 11.8147Z" stroke="currentColor" stroke-width="0.8" stroke-linecap="round" stroke-linejoin="round"/>
<path d="M12.0416 7.37492C12.0416 8.5025 11.1275 9.41659 9.99995 9.41659C8.87237 9.41659 7.95828 8.5025 7.95828 7.37492C7.95828 6.24734 8.87237 5.33325 9.99995 5.33325C11.1275 5.33325 12.0416 6.24734 12.0416 7.37492Z" stroke="currentColor" stroke-width="0.8"/>
</svg>
