<svg width="16" height="16" viewBox="0 0 16 16" fill="none" xmlns="http://www.w3.org/2000/svg">
<path d="M1.56824 8.80965C1.3329 7.27812 1.21522 6.5124 1.50476 5.83357C1.7943 5.15473 2.43667 4.69027 3.72141 3.76136L4.68131 3.06732C6.27951 1.91176 7.07858 1.33398 8.00065 1.33398C8.92272 1.33398 9.72178 1.91176 11.32 3.06732L12.2799 3.76136C13.5647 4.69027 14.207 5.15473 14.4965 5.83357C14.7861 6.5124 14.6684 7.27812 14.4331 8.80965L14.2324 10.1156C13.8987 12.2866 13.7319 13.3721 12.9533 14.0197C12.1747 14.6673 11.0365 14.6673 8.75985 14.6673H7.24145C4.96487 14.6673 3.82659 14.6673 3.04798 14.0197C2.26938 13.3721 2.10256 12.2866 1.76894 10.1156L1.56824 8.80965Z" fill="#073203" stroke="#073203" stroke-width="0.666667" stroke-linejoin="round"/>
<path d="M6.66797 12H9.33464" stroke="#40D654" stroke-linecap="round" stroke-linejoin="round"/>
</svg>
