<svg width="24" height="24" viewBox="0 0 24 24" fill="none" xmlns="http://www.w3.org/2000/svg">
<path d="M2.35237 13.2145C1.99935 10.9172 1.82284 9.76861 2.25715 8.75036C2.69145 7.7321 3.65501 7.03541 5.58212 5.64204L7.02197 4.60098C9.41927 2.86765 10.6179 2.00098 12.001 2.00098C13.3841 2.00098 14.5827 2.86765 16.98 4.60098L18.4199 5.64204C20.347 7.03541 21.3105 7.7321 21.7448 8.75036C22.1791 9.76861 22.0026 10.9172 21.6496 13.2145L21.3486 15.1734C20.8481 18.4299 20.5979 20.0582 19.43 21.0296C18.2621 22.001 16.5547 22.001 13.1398 22.001H10.8622C7.44731 22.001 5.73989 22.001 4.57198 21.0296C3.40407 20.0582 3.15385 18.4299 2.65341 15.1734L2.35237 13.2145Z" stroke="#504C51" stroke-width="1.5" stroke-linejoin="round"/>
<path d="M10.002 18H14.002" stroke="#504C51" stroke-width="1.5" stroke-linecap="round" stroke-linejoin="round"/>
</svg>
