<svg width="20" height="20" viewBox="0 0 20 20" fill="none" xmlns="http://www.w3.org/2000/svg">
<path fill-rule="evenodd" clip-rule="evenodd" d="M2.48694 2.42416C2.48694 2.07466 2.70502 1.76229 3.03312 1.64186C4.40251 1.1392 5.52758 0.90906 6.67908 0.931135C7.81754 0.952959 8.92557 1.22109 10.2453 1.62778C11.5424 2.02751 12.4666 2.26175 13.3637 2.29052C14.238 2.31856 15.14 2.15167 16.3649 1.65245C16.6219 1.54773 16.9141 1.57778 17.1444 1.73259C17.3747 1.88741 17.5128 2.14668 17.5128 2.42416V11.5908C17.5128 11.9296 17.3077 12.2347 16.9939 12.3625C15.6105 12.9263 14.4734 13.1603 13.3103 13.123C12.1701 13.0864 11.0588 12.7892 9.75444 12.3872C8.47269 11.9922 7.54572 11.7814 6.64714 11.7642C5.89677 11.7498 5.12597 11.8702 4.15361 12.1842L4.15361 18.3333C4.15361 18.7935 3.78051 19.1666 3.32027 19.1666C2.86004 19.1666 2.48694 18.7935 2.48694 18.3333V2.42416ZM6.67908 10.0978C5.85666 10.082 5.04771 10.1949 4.15361 10.4439V3.01753C5.12597 2.70348 5.89677 2.58311 6.64714 2.5975C7.54572 2.61472 8.47269 2.82554 9.75444 3.22053C11.0588 3.62249 12.1701 3.91976 13.3103 3.95633C14.1362 3.98281 14.9489 3.87253 15.8461 3.60451V11.0177C14.8761 11.3631 14.1098 11.4811 13.3637 11.4572C12.4666 11.4284 11.5424 11.1942 10.2453 10.7945C8.92557 10.3878 7.81754 10.1196 6.67908 10.0978Z" fill="#92E89D"/>
</svg>
