<svg width="21" height="20" viewBox="0 0 21 20" fill="none" xmlns="http://www.w3.org/2000/svg">
<path d="M12.5834 7.49984C12.5834 8.65042 11.6507 9.58317 10.5001 9.58317C9.3495 9.58317 8.41675 8.65042 8.41675 7.49984C8.41675 6.34925 9.3495 5.4165 10.5001 5.4165C11.6507 5.4165 12.5834 6.34925 12.5834 7.49984Z" stroke="white" stroke-width="1.25"/>
<path d="M11.5479 14.5778C11.2668 14.8485 10.8912 14.9998 10.5002 14.9998C10.1092 14.9998 9.73358 14.8485 9.4525 14.5778C6.87866 12.0838 3.42941 9.29775 5.11151 5.25295C6.021 3.06594 8.2042 1.6665 10.5002 1.6665C12.7962 1.6665 14.9794 3.06595 15.8889 5.25295C17.5689 9.29267 14.1281 12.0924 11.5479 14.5778Z" stroke="white" stroke-width="1.25"/>
<path d="M15.5 16.6665C15.5 17.587 13.2614 18.3332 10.5 18.3332C7.73857 18.3332 5.5 17.587 5.5 16.6665" stroke="white" stroke-width="1.25" stroke-linecap="round"/>
</svg>
