<svg width="60" height="60" viewBox="0 0 60 60" fill="none" xmlns="http://www.w3.org/2000/svg">
<circle cx="30" cy="30" r="30" fill="#B922D2" fill-opacity="0.4"/>
<path d="M31.6177 39.367C31.1841 39.773 30.6044 40 30.0011 40C29.3978 40 28.8182 39.773 28.3845 39.367C24.413 35.626 19.0908 31.4469 21.6863 25.3797C23.0896 22.0992 26.4583 20 30.0011 20C33.5439 20 36.9126 22.0992 38.316 25.3797C40.9082 31.4393 35.599 35.6389 31.6177 39.367Z" fill="#B922D2" stroke="#B922D2" stroke-width="1.5"/>
<path d="M33.5 29C33.5 30.933 31.933 32.5 30 32.5C28.067 32.5 26.5 30.933 26.5 29C26.5 27.067 28.067 25.5 30 25.5C31.933 25.5 33.5 27.067 33.5 29Z" fill="#1F1D20" stroke="#1F1D20" stroke-width="1.5"/>
</svg>
