<svg width="20" height="20" viewBox="0 0 20 20" fill="none" xmlns="http://www.w3.org/2000/svg">
<path d="M11.3481 17.8058C10.9867 18.1442 10.5037 18.3333 10.0009 18.3333C9.49821 18.3333 9.01515 18.1442 8.65374 17.8058C5.34418 14.6883 0.908969 11.2058 3.07189 6.14971C4.24136 3.41595 7.04862 1.66666 10.0009 1.66666C12.9532 1.66666 15.7605 3.41595 16.93 6.14971C19.0902 11.1994 14.6658 14.6991 11.3481 17.8058Z" stroke="currentColor" stroke-width="1.5"/>
<path d="M12.9167 9.16667C12.9167 10.7775 11.6109 12.0833 10 12.0833C8.38921 12.0833 7.08337 10.7775 7.08337 9.16667C7.08337 7.55584 8.38921 6.25 10 6.25C11.6109 6.25 12.9167 7.55584 12.9167 9.16667Z" stroke="currentColor" stroke-width="1.5"/>
</svg>
