<svg width="14" height="11" viewBox="0 0 14 11" fill="none" xmlns="http://www.w3.org/2000/svg">
<path d="M7.83331 9.08333C8.29355 9.08333 8.66665 9.45643 8.66665 9.91667C8.66665 10.3769 8.29355 10.75 7.83331 10.75H6.16665C5.70641 10.75 5.33331 10.3769 5.33331 9.91667C5.33331 9.45643 5.70641 9.08333 6.16665 9.08333H7.83331ZM10.3333 4.91667C10.7936 4.91667 11.1666 5.28976 11.1666 5.75C11.1666 6.21024 10.7936 6.58333 10.3333 6.58333H3.66665C3.20641 6.58333 2.83331 6.21024 2.83331 5.75C2.83331 5.28976 3.20641 4.91667 3.66665 4.91667H10.3333ZM12.8333 0.75C13.2936 0.75 13.6666 1.1231 13.6666 1.58333C13.6666 2.04357 13.2936 2.41667 12.8333 2.41667H1.16665C0.706409 2.41667 0.333313 2.04357 0.333313 1.58333C0.333313 1.1231 0.706409 0.75 1.16665 0.75H12.8333Z" />
</svg>
