<svg width="25" height="24" viewBox="0 0 25 24" fill="none" xmlns="http://www.w3.org/2000/svg">
<path d="M15.0041 20.8905C19.1871 20.6125 22.5191 17.2332 22.7933 12.9909C22.8469 12.1607 22.8469 11.3009 22.7933 10.4707C22.5191 6.22838 19.1871 2.84913 15.0041 2.57107C13.577 2.47621 12.0871 2.47641 10.6629 2.57107C6.47988 2.84913 3.1479 6.22838 2.87373 10.4707C2.82008 11.3009 2.82008 12.1607 2.87373 12.9909C2.97359 14.536 3.65692 15.9666 4.4614 17.1746C4.9285 18.0203 4.62023 19.0758 4.1337 19.9978C3.7829 20.6626 3.6075 20.995 3.74833 21.2351C3.88917 21.4752 4.20375 21.4829 4.83292 21.4982C6.07716 21.5285 6.91617 21.1757 7.58217 20.6846C7.95989 20.4061 8.14876 20.2668 8.27893 20.2508C8.40909 20.2348 8.66526 20.3403 9.1775 20.5513C9.63789 20.7409 10.1725 20.8579 10.6629 20.8905C12.0871 20.9852 13.577 20.9854 15.0041 20.8905Z" stroke="#BDB9BE" stroke-width="1.5" stroke-linejoin="round"/>
<path d="M12.829 12H12.838M16.8245 12H16.8335M8.8335 12H8.84247" stroke="#BDB9BE" stroke-width="2" stroke-linecap="round" stroke-linejoin="round"/>
</svg>
