<svg width="18" height="16" viewBox="0 0 18 16" fill="none" xmlns="http://www.w3.org/2000/svg">
<path d="M1.42847 7.99984C1.42847 5.64151 1.42847 4.46235 2.18047 3.6751C2.30074 3.54919 2.43331 3.43274 2.57665 3.32708C3.47285 2.6665 4.8152 2.6665 7.4999 2.6665H9.64275C12.3274 2.6665 13.6698 2.6665 14.566 3.32708C14.7093 3.43274 14.8419 3.54919 14.9622 3.6751C15.7142 4.46235 15.7142 5.64151 15.7142 7.99984C15.7142 10.3582 15.7142 11.5373 14.9622 12.3246C14.8419 12.4505 14.7093 12.5669 14.566 12.6726C13.6698 13.3332 12.3274 13.3332 9.64275 13.3332H7.4999C4.8152 13.3332 3.47285 13.3332 2.57665 12.6726C2.43331 12.5669 2.30074 12.4505 2.18047 12.3246C1.42847 11.5373 1.42847 10.3582 1.42847 7.99984Z" stroke="#BDB9BE" stroke-width="0.8" stroke-linecap="round" stroke-linejoin="round"/>
<path d="M10.3934 7.99967C10.3934 8.92015 9.59386 9.66634 8.60764 9.66634C7.62141 9.66634 6.82192 8.92015 6.82192 7.99967C6.82192 7.0792 7.62141 6.33301 8.60764 6.33301C9.59386 6.33301 10.3934 7.0792 10.3934 7.99967Z" stroke="#BDB9BE" stroke-width="0.8"/>
<path d="M3.57129 8L4.28557 8" stroke="#BDB9BE" stroke-width="0.8" stroke-linecap="round"/>
<path d="M12.8569 8L13.5712 8" stroke="#BDB9BE" stroke-width="0.8" stroke-linecap="round"/>
</svg>
