<svg width="21" height="20" viewBox="0 0 21 20" fill="none" xmlns="http://www.w3.org/2000/svg">
<path d="M9 4.16667C9 3.24619 9.74619 2.5 10.6667 2.5C11.5871 2.5 12.3333 3.24619 12.3333 4.16667C12.3333 5.08714 11.5871 5.83333 10.6667 5.83333C9.74619 5.83333 9 5.08714 9 4.16667Z" fill="white"/>
<path d="M9 10C9 9.07953 9.74619 8.33333 10.6667 8.33333C11.5871 8.33333 12.3333 9.07953 12.3333 10C12.3333 10.9205 11.5871 11.6667 10.6667 11.6667C9.74619 11.6667 9 10.9205 9 10Z" fill="white"/>
<path d="M10.6667 14.1667C9.74619 14.1667 9 14.9129 9 15.8333C9 16.7538 9.74619 17.5 10.6667 17.5C11.5871 17.5 12.3333 16.7538 12.3333 15.8333C12.3333 14.9129 11.5871 14.1667 10.6667 14.1667Z" fill="white"/>
</svg>
