<svg width="20" height="20" viewBox="0 0 20 20" fill="none" xmlns="http://www.w3.org/2000/svg">
<path d="M2.10587 12.3075C1.92866 13.4692 2.72093 14.2755 3.69098 14.6774C7.40994 16.218 12.5853 16.218 16.3042 14.6774C17.2743 14.2755 18.0665 13.4692 17.8894 12.3075C17.7804 11.5936 17.2419 10.9991 16.8429 10.4186C16.3204 9.64895 16.2684 8.80937 16.2684 7.9162C16.2684 4.46442 13.4609 1.6662 9.9976 1.6662C6.53438 1.6662 3.72688 4.46442 3.72688 7.9162C3.72679 8.80937 3.67487 9.64895 3.15228 10.4186C2.7533 10.9991 2.21478 11.5936 2.10587 12.3075Z" stroke="white" stroke-width="1.66667" stroke-linecap="round" stroke-linejoin="round"/>
<path d="M6.66809 15.8318C7.05017 17.2695 8.39767 18.3318 10.0014 18.3318C11.6052 18.3318 12.9527 17.2695 13.3348 15.8318" stroke="white" stroke-width="1.66667" stroke-linecap="round" stroke-linejoin="round"/>
</svg>
