<svg width="21" height="20" viewBox="0 0 21 20" fill="none" xmlns="http://www.w3.org/2000/svg">
<path d="M9.83325 1.66675C13.9733 1.66675 17.3333 5.02675 17.3333 9.16675C17.3333 13.3067 13.9733 16.6667 9.83325 16.6667C5.69325 16.6667 2.33325 13.3067 2.33325 9.16675C2.33325 5.02675 5.69325 1.66675 9.83325 1.66675ZM9.83325 15.0001C13.0558 15.0001 15.6666 12.3892 15.6666 9.16675C15.6666 5.94341 13.0558 3.33341 9.83325 3.33341C6.60992 3.33341 3.99992 5.94341 3.99992 9.16675C3.99992 12.3892 6.60992 15.0001 9.83325 15.0001ZM16.9041 15.0592L19.2616 17.4159L18.0824 18.5951L15.7258 16.2376L16.9041 15.0592Z" fill="currentColor"/>
</svg>
