<svg width="21" height="20" viewBox="0 0 21 20" fill="none" xmlns="http://www.w3.org/2000/svg">
<path d="M10.6667 12.5C12.0474 12.5 13.1667 11.3807 13.1667 9.99996C13.1667 8.61925 12.0474 7.49996 10.6667 7.49996C9.28597 7.49996 8.16668 8.61925 8.16668 9.99996C8.16668 11.3807 9.28597 12.5 10.6667 12.5Z" stroke="white" stroke-width="1.66667" stroke-linecap="round" stroke-linejoin="round"/>
<path d="M16.2727 12.2727C16.1719 12.5012 16.1418 12.7547 16.1864 13.0004C16.2309 13.2462 16.3481 13.4729 16.5227 13.6515L16.5682 13.6969C16.7091 13.8376 16.8208 14.0048 16.8971 14.1887C16.9733 14.3726 17.0126 14.5698 17.0126 14.7689C17.0126 14.968 16.9733 15.1652 16.8971 15.3491C16.8208 15.533 16.7091 15.7002 16.5682 15.8409C16.4275 15.9817 16.2604 16.0935 16.0764 16.1697C15.8925 16.246 15.6953 16.2852 15.4962 16.2852C15.2971 16.2852 15.0999 16.246 14.916 16.1697C14.7321 16.0935 14.565 15.9817 14.4243 15.8409L14.3788 15.7954C14.2003 15.6208 13.9735 15.5036 13.7277 15.459C13.482 15.4145 13.2285 15.4446 13 15.5454C12.7759 15.6414 12.5848 15.8009 12.4502 16.0042C12.3156 16.2074 12.2434 16.4456 12.2424 16.6894V16.8181C12.2424 17.22 12.0828 17.6054 11.7987 17.8895C11.5145 18.1737 11.1291 18.3333 10.7273 18.3333C10.3254 18.3333 9.94006 18.1737 9.65591 17.8895C9.37176 17.6054 9.21213 17.22 9.21213 16.8181V16.75C9.20627 16.4992 9.1251 16.256 8.97919 16.052C8.83327 15.848 8.62936 15.6926 8.39395 15.606C8.16545 15.5052 7.91199 15.4751 7.66623 15.5197C7.42048 15.5642 7.19371 15.6814 7.01516 15.856L6.96971 15.9015C6.82899 16.0423 6.66189 16.1541 6.47795 16.2304C6.29401 16.3066 6.09685 16.3458 5.89774 16.3458C5.69862 16.3458 5.50146 16.3066 5.31753 16.2304C5.13359 16.1541 4.96648 16.0423 4.82577 15.9015C4.68489 15.7608 4.57314 15.5937 4.49689 15.4097C4.42064 15.2258 4.38139 15.0286 4.38139 14.8295C4.38139 14.6304 4.42064 14.4332 4.49689 14.2493C4.57314 14.0654 4.68489 13.8983 4.82577 13.7575L4.87122 13.7121C5.04587 13.5335 5.16303 13.3068 5.20759 13.061C5.25215 12.8153 5.22207 12.5618 5.12122 12.3333C5.02519 12.1092 4.86573 11.9181 4.66248 11.7835C4.45923 11.6489 4.22106 11.5767 3.97728 11.5757H3.8485C3.44665 11.5757 3.06127 11.4161 2.77712 11.1319C2.49298 10.8478 2.33334 10.4624 2.33334 10.0606C2.33334 9.65872 2.49298 9.27334 2.77712 8.98919C3.06127 8.70505 3.44665 8.54541 3.8485 8.54541H3.91668C4.16743 8.53955 4.41062 8.45838 4.61463 8.31247C4.81864 8.16655 4.97404 7.96264 5.06062 7.72723C5.16146 7.49874 5.19154 7.24527 5.14698 6.99951C5.10242 6.75376 4.98527 6.52699 4.81062 6.34844L4.76516 6.30299C4.62429 6.16227 4.51253 5.99517 4.43628 5.81123C4.36003 5.6273 4.32079 5.43013 4.32079 5.23102C4.32079 5.03191 4.36003 4.83474 4.43628 4.65081C4.51253 4.46687 4.62429 4.29977 4.76516 4.15905C4.90588 4.01818 5.07298 3.90642 5.25692 3.83017C5.44086 3.75392 5.63802 3.71468 5.83713 3.71468C6.03625 3.71468 6.23341 3.75392 6.41734 3.83017C6.60128 3.90642 6.76838 4.01818 6.9091 4.15905L6.95456 4.2045C7.1331 4.37915 7.35987 4.49631 7.60562 4.54087C7.85138 4.58543 8.10485 4.55535 8.33334 4.4545H8.39395C8.61802 4.35847 8.80911 4.19902 8.94372 3.99577C9.07832 3.79252 9.15055 3.55434 9.15153 3.31057V3.18178C9.15153 2.77993 9.31116 2.39455 9.5953 2.1104C9.87945 1.82626 10.2648 1.66663 10.6667 1.66663C11.0685 1.66663 11.4539 1.82626 11.7381 2.1104C12.0222 2.39455 12.1818 2.77993 12.1818 3.18178V3.24996C12.1828 3.49374 12.255 3.73191 12.3896 3.93516C12.5242 4.13841 12.7153 4.29787 12.9394 4.3939C13.1679 4.49474 13.4214 4.52483 13.6671 4.48027C13.9129 4.43571 14.1396 4.31855 14.3182 4.1439L14.3636 4.09844C14.5044 3.95757 14.6715 3.84581 14.8554 3.76957C15.0393 3.69332 15.2365 3.65407 15.4356 3.65407C15.6347 3.65407 15.8319 3.69332 16.0158 3.76957C16.1998 3.84581 16.3669 3.95757 16.5076 4.09844C16.6485 4.23916 16.7602 4.40627 16.8365 4.5902C16.9127 4.77414 16.952 4.9713 16.952 5.17041C16.952 5.36953 16.9127 5.56669 16.8365 5.75063C16.7602 5.93456 16.6485 6.10167 16.5076 6.24238L16.4621 6.28784C16.2875 6.46638 16.1703 6.69315 16.1258 6.93891C16.0812 7.18466 16.1113 7.43813 16.2121 7.66663V7.72723C16.3082 7.9513 16.4676 8.1424 16.6709 8.277C16.8741 8.4116 17.1123 8.48384 17.3561 8.48481H17.4849C17.8867 8.48481 18.2721 8.64444 18.5562 8.92859C18.8404 9.21273 19 9.59812 19 9.99996C19 10.4018 18.8404 10.7872 18.5562 11.0713C18.2721 11.3555 17.8867 11.5151 17.4849 11.5151H17.4167C17.1729 11.5161 16.9347 11.5883 16.7315 11.7229C16.5282 11.8575 16.3688 12.0486 16.2727 12.2727Z" stroke="white" stroke-width="1.66667" stroke-linecap="round" stroke-linejoin="round"/>
</svg>
