<svg width="20" height="20" viewBox="0 0 20 20" fill="none" xmlns="http://www.w3.org/2000/svg">
<path d="M16.9939 6.69302L15.5381 5.4288C14.4892 4.5179 14.0781 4.02789 13.5101 4.20112C12.8018 4.41712 13.035 5.78004 13.035 6.24016C11.9338 6.24016 10.789 6.15546 9.70359 6.33193C6.12044 6.91447 5 9.46382 5 12.2104C6.01415 11.5887 7.02728 10.8955 8.24617 10.6074C9.76768 10.2477 11.467 10.4193 13.035 10.4193C13.035 10.8794 12.8018 12.2424 13.5101 12.4584C14.1537 12.6546 14.4892 12.1416 15.5381 11.2307L16.9939 9.96646C17.8869 9.19101 18.3333 8.80328 18.3333 8.32974C18.3333 7.85621 17.8869 7.46848 16.9939 6.69302Z" stroke-width="1.2" stroke-linecap="round" stroke-linejoin="round"/>
<path d="M8.8064 2.5C5.58954 2.50578 3.90503 2.5846 2.8285 3.65894C1.66675 4.81835 1.66675 6.68438 1.66675 10.4164C1.66675 14.1485 1.66675 16.0145 2.8285 17.1739C3.99025 18.3333 5.86007 18.3333 9.59969 18.3333C13.3393 18.3333 15.2091 18.3333 16.3709 17.1739C17.1797 16.3667 17.4254 15.2169 17.5001 13.3333" stroke-width="1.2" stroke-linecap="round" stroke-linejoin="round"/>
</svg>
