<svg width="20" height="20" viewBox="0 0 20 20" fill="none" xmlns="http://www.w3.org/2000/svg">
<path d="M3.55655 15.704C3.74395 17.0958 4.89681 18.1863 6.29975 18.2508C7.48027 18.305 8.67946 18.3333 10 18.3333C11.3206 18.3333 12.5198 18.305 13.7003 18.2508C15.1033 18.1863 16.2561 17.0958 16.4435 15.704C16.5658 14.7956 16.6667 13.8647 16.6667 12.9167C16.6667 11.9686 16.5658 11.0378 16.4435 10.1294C16.2561 8.73752 15.1033 7.64707 13.7003 7.58258C12.5198 7.52831 11.3206 7.5 10 7.5C8.67946 7.5 7.48027 7.52831 6.29975 7.58258C4.89681 7.64707 3.74395 8.73752 3.55655 10.1294C3.43424 11.0378 3.33337 11.9686 3.33337 12.9167C3.33337 13.8647 3.43424 14.7956 3.55655 15.704Z" stroke="#92E89D" stroke-width="1.5"/>
<path d="M6.25 7.50008V5.41675C6.25 3.34568 7.92893 1.66675 10 1.66675C12.0711 1.66675 13.75 3.34568 13.75 5.41675V7.50008" stroke="#92E89D" stroke-width="1.5" stroke-linecap="round" stroke-linejoin="round"/>
<path d="M9.99683 12.9167H10.0043" stroke="#92E89D" stroke-width="2" stroke-linecap="round" stroke-linejoin="round"/>
</svg>
