<svg width="25" height="24" viewBox="0 0 25 24" fill="none" xmlns="http://www.w3.org/2000/svg">
<path d="M14.2276 3.44418L15.9874 6.99288C16.2274 7.48687 16.8673 7.9607 17.4073 8.05143L20.5969 8.58575C22.6367 8.92853 23.1167 10.4206 21.6468 11.8925L19.1671 14.3927C18.7471 14.8161 18.5172 15.6327 18.6471 16.2175L19.3571 19.3125C19.917 21.7623 18.6271 22.71 16.4774 21.4296L13.4877 19.6452C12.9478 19.3226 12.0579 19.3226 11.5079 19.6452L8.51827 21.4296C6.3785 22.71 5.07865 21.7522 5.63859 19.3125L6.34851 16.2175C6.47849 15.6327 6.24852 14.8161 5.82856 14.3927L3.34884 11.8925C1.889 10.4206 2.35895 8.92853 4.39872 8.58575L7.58837 8.05143C8.11831 7.9607 8.75824 7.48687 8.99821 6.99288L10.758 3.44418C11.7179 1.51861 13.2777 1.51861 14.2276 3.44418Z" stroke="#BDB9BE" stroke-width="1.5" stroke-linecap="round" stroke-linejoin="round"/>
</svg>
