<svg width="88" height="88" viewBox="0 0 88 88" fill="none" xmlns="http://www.w3.org/2000/svg">
<rect width="88" height="88" rx="44" fill="#021501"/>
<path d="M62.6415 62.6668H62.6668M62.6415 62.6668C60.981 64.3135 57.9716 63.9034 55.8612 63.9034C53.2708 63.9034 52.0234 64.41 50.1746 66.2588C48.6004 67.8332 46.49 70.6668 44.0002 70.6668C41.5103 70.6668 39.3999 67.8332 37.8257 66.2588C35.9769 64.41 34.7295 63.9034 32.139 63.9034C30.0286 63.9034 27.0193 64.3135 25.3588 62.6668C23.685 61.0071 24.0969 57.9852 24.0969 55.8612C24.0969 53.1772 23.5099 51.9431 21.5985 50.0316C18.7552 47.1884 17.3335 45.7666 17.3335 44.0002C17.3335 42.2335 18.7551 40.8119 21.5984 37.9686C23.3047 36.2623 24.0969 34.5716 24.0969 32.139C24.0969 30.0286 23.6868 27.0192 25.3335 25.3587C26.9933 23.6849 30.0151 24.0969 32.139 24.0969C34.5715 24.0969 36.2623 23.3047 37.9686 21.5985C40.8119 18.7551 42.2335 17.3335 44.0002 17.3335C45.7668 17.3335 47.1884 18.7551 50.0316 21.5985C51.7375 23.3043 53.4282 24.0969 55.8612 24.0969C57.9716 24.0969 60.9812 23.6867 62.6418 25.3335C64.3154 26.9933 63.9034 30.0151 63.9034 32.139C63.9034 34.823 64.4906 36.0571 66.4018 37.9686C69.2452 40.8119 70.6668 42.2335 70.6668 44.0002C70.6668 45.7666 69.2452 47.1884 66.4018 50.0316C64.4903 51.9431 63.9034 53.1772 63.9034 55.8612C63.9034 57.9852 64.3154 61.0071 62.6415 62.6668Z" stroke="#40D654" stroke-width="4"/>
<path d="M36 46.3812L40.8 50.6668L52 37.3335" stroke="#40D654" stroke-width="4" stroke-linecap="round" stroke-linejoin="round"/>
</svg>
