<svg width="16" height="16" viewBox="0 0 16 16" fill="none" xmlns="http://www.w3.org/2000/svg">
<path d="M13.8491 12C14.3487 12 14.746 11.6856 15.1027 11.2461C15.833 10.3463 14.634 9.62723 14.1767 9.27507C13.7118 8.91708 13.1927 8.71428 12.6664 8.66667M11.9998 7.33333C12.9202 7.33333 13.6664 6.58714 13.6664 5.66667C13.6664 4.74619 12.9202 4 11.9998 4" stroke="#BDB9BE" stroke-width="0.8" stroke-linecap="round"/>
<path d="M2.15048 12C1.65094 12 1.25362 11.6856 0.896868 11.2461C0.166563 10.3463 1.36562 9.62723 1.82293 9.27507C2.28782 8.91708 2.80689 8.71428 3.33317 8.66667M3.6665 7.33333C2.74603 7.33333 1.99984 6.58714 1.99984 5.66667C1.99984 4.74619 2.74603 4 3.6665 4" stroke="#BDB9BE" stroke-width="0.8" stroke-linecap="round"/>
<path d="M5.38904 10.0738C4.70785 10.495 2.92183 11.3551 4.00964 12.4313C4.54102 12.957 5.13285 13.333 5.87692 13.333H10.1228C10.8668 13.333 11.4587 12.957 11.99 12.4313C13.0778 11.3551 11.2918 10.495 10.6106 10.0738C9.01327 9.08608 6.98641 9.08608 5.38904 10.0738Z" stroke="#BDB9BE" stroke-width="0.8" stroke-linecap="round" stroke-linejoin="round"/>
<path d="M10.3332 4.99984C10.3332 6.2885 9.2885 7.33317 7.99984 7.33317C6.71117 7.33317 5.6665 6.2885 5.6665 4.99984C5.6665 3.71117 6.71117 2.6665 7.99984 2.6665C9.2885 2.6665 10.3332 3.71117 10.3332 4.99984Z" stroke="#BDB9BE" stroke-width="0.8"/>
</svg>
