<svg width="16" height="17" viewBox="0 0 16 17" fill="none" xmlns="http://www.w3.org/2000/svg">
<path d="M8 8.5V12.5" stroke="#89FF99" stroke-linecap="round"/>
<path d="M7.99992 12.5C6.88419 12.5 5.91306 13.1747 5.41169 14.17C5.17223 14.6453 5.51585 15.1667 5.97243 15.1667H10.0274C10.484 15.1667 10.8276 14.6453 10.5881 14.17C10.0868 13.1747 9.11565 12.5 7.99992 12.5Z" stroke="#89FF99" stroke-linecap="round"/>
<path d="M3.33325 3.8335H2.65639C1.99871 3.8335 1.66987 3.8335 1.4667 4.08052C1.26353 4.32754 1.32311 4.60414 1.44227 5.15736C1.66988 6.21407 2.16357 7.14243 2.83252 7.8335" stroke="#89FF99" stroke-linecap="round"/>
<path d="M12.6667 3.8335H13.3436C14.0013 3.8335 14.3301 3.8335 14.5333 4.08052C14.7365 4.32754 14.6769 4.60414 14.5577 5.15736C14.3301 6.21407 13.8364 7.14243 13.1675 7.8335" stroke="#89FF99" stroke-linecap="round"/>
<path d="M7.99992 8.50016C10.5773 8.50016 12.6666 6.42223 12.6666 3.85897C12.6666 3.79176 12.6651 3.72488 12.6623 3.65836C12.6339 2.9922 12.6196 2.65913 12.1681 2.24631C11.7167 1.8335 11.2164 1.8335 10.2159 1.8335H5.78389C4.78342 1.8335 4.2832 1.8335 3.83173 2.24631C3.38026 2.65912 3.36602 2.9922 3.33753 3.65836C3.33469 3.72488 3.33325 3.79176 3.33325 3.85897C3.33325 6.42223 5.42259 8.50016 7.99992 8.50016Z" stroke="#89FF99" stroke-linecap="round"/>
</svg>
